HIERARCHY
ROOT hip
{
  OFFSET 0 0 0
  CHANNELS 6 Xposition Yposition Zposition Zrotation Yrotation Xrotation
  JOINT abdomen
  {
    OFFSET 0 20.6881 -0.73152
    CHANNELS 3 Zrotation Xrotation Yrotation
    JOINT chest
    {
      OFFSET 0 11.7043 -0.48768
      CHANNELS 3 Zrotation Xrotation Yrotation
      JOINT neck
      {
        OFFSET 0 22.1894 -2.19456
        CHANNELS 3 Zrotation Xrotation Yrotation
        JOINT head
        {
          OFFSET -0.24384 7.07133 1.2192
          CHANNELS 3 Zrotation Xrotation Yrotation
          JOINT leftEye
          {
            OFFSET 4.14528 8.04674 8.04672
            CHANNELS 3 Zrotation Xrotation Yrotation
            End Site
            {
              OFFSET 1 0 0
            }
          }
          JOINT rightEye
          {
            OFFSET -3.6576 8.04674 8.04672
            CHANNELS 3 Zrotation Xrotation Yrotation
            End Site
            {
              OFFSET 1 0 0
            }
          }
        }
      }
      JOINT rCollar
      {
        OFFSET -2.68224 19.2634 -4.8768
        CHANNELS 3 Zrotation Xrotation Yrotation
        JOINT rShldr
        {
          OFFSET -8.77824 -1.95073 1.46304
          CHANNELS 3 Zrotation Xrotation Yrotation
          JOINT rForeArm
          {
            OFFSET -28.1742 -1.7115 0.48768
            CHANNELS 3 Zrotation Xrotation Yrotation
            JOINT rHand
            {
              OFFSET -22.5879 0.773209 7.07136
              CHANNELS 3 Zrotation Xrotation Yrotation
              JOINT rThumb1
              {
                OFFSET -1.2192 -0.487915 3.41376
                CHANNELS 3 Zrotation Xrotation Yrotation
                JOINT rThumb2
                {
                  OFFSET -3.37035 -0.52449 3.41376
                  CHANNELS 3 Zrotation Xrotation Yrotation
                  End Site
                  {
                    OFFSET -1.78271 -1.18214 1.43049
                  }
                }
              }
              JOINT rIndex1
              {
                OFFSET -7.75947 0.938293 5.60832
                CHANNELS 3 Zrotation Xrotation Yrotation
                JOINT rIndex2
                {
                  OFFSET -2.54057 -0.884171 1.56538
                  CHANNELS 3 Zrotation Xrotation Yrotation
                  End Site
                  {
                    OFFSET -1.62519 -0.234802 1.16502
                  }
                }
              }
              JOINT rMid1
              {
                OFFSET -8.24714 1.18213 3.41376
                CHANNELS 3 Zrotation Xrotation Yrotation
                JOINT rMid2
                {
                  OFFSET -3.10165 -0.590103 1.0647
                  CHANNELS 3 Zrotation Xrotation Yrotation
                  End Site
                  {
                    OFFSET -2.48547 -0.328903 0.83742
                  }
                }
              }
              JOINT rRing1
              {
                OFFSET -8.82822 0.546677 1.51678
                CHANNELS 3 Zrotation Xrotation Yrotation
                JOINT rRing2
                {
                  OFFSET -2.60934 -0.819778 -0.0198488
                  CHANNELS 3 Zrotation Xrotation Yrotation
                  End Site
                  {
                    OFFSET -2.33842 -0.294052 0.168128
                  }
                }
              }
              JOINT rPinky1
              {
                OFFSET -8.27202 -0.0477905 -0.4584
                CHANNELS 3 Zrotation Xrotation Yrotation
                JOINT rPinky2
                {
                  OFFSET -1.82734 -0.647385 -0.700984
                  CHANNELS 3 Zrotation Xrotation Yrotation
                  End Site
                  {
                    OFFSET -1.69225 -0.51767 -0.607171
                  }
                }
              }
            }
          }
        }
      }
      JOINT lCollar
      {
        OFFSET 2.68224 19.2634 -4.8768
        CHANNELS 3 Zrotation Xrotation Yrotation
        JOINT lShldr
        {
          OFFSET 8.77824 -1.95073 1.46304
          CHANNELS 3 Zrotation Xrotation Yrotation
          JOINT lForeArm
          {
            OFFSET 28.1742 -1.7115 0.48768
            CHANNELS 3 Zrotation Xrotation Yrotation
            JOINT lHand
            {
              OFFSET 22.5879 0.773209 7.07136
              CHANNELS 3 Zrotation Xrotation Yrotation
              JOINT lThumb1
              {
                OFFSET 1.2192 -0.487915 3.41376
                CHANNELS 3 Zrotation Xrotation Yrotation
                JOINT lThumb2
                {
                  OFFSET 3.37035 -0.52449 3.41376
                  CHANNELS 3 Zrotation Xrotation Yrotation
                  End Site
                  {
                    OFFSET 1.78271 -1.18214 1.43049
                  }
                }
              }
              JOINT lIndex1
              {
                OFFSET 7.75947 0.938293 5.60832
                CHANNELS 3 Zrotation Xrotation Yrotation
                JOINT lIndex2
                {
                  OFFSET 2.54057 -0.884171 1.56538
                  CHANNELS 3 Zrotation Xrotation Yrotation
                  End Site
                  {
                    OFFSET 1.62519 -0.234802 1.16502
                  }
                }
              }
              JOINT lMid1
              {
                OFFSET 8.24714 1.18213 3.41376
                CHANNELS 3 Zrotation Xrotation Yrotation
                JOINT lMid2
                {
                  OFFSET 3.10165 -0.590103 1.0647
                  CHANNELS 3 Zrotation Xrotation Yrotation
                  End Site
                  {
                    OFFSET 2.48547 -0.328903 0.83742
                  }
                }
              }
              JOINT lRing1
              {
                OFFSET 8.82822 0.546677 1.51678
                CHANNELS 3 Zrotation Xrotation Yrotation
                JOINT lRing2
                {
                  OFFSET 2.60934 -0.819778 -0.0198488
                  CHANNELS 3 Zrotation Xrotation Yrotation
                  End Site
                  {
                    OFFSET 2.33842 -0.294052 0.168128
                  }
                }
              }
              JOINT lPinky1
              {
                OFFSET 8.27202 -0.0477905 -0.4584
                CHANNELS 3 Zrotation Xrotation Yrotation
                JOINT lPinky2
                {
                  OFFSET 1.82734 -0.647385 -0.700984
                  CHANNELS 3 Zrotation Xrotation Yrotation
                  End Site
                  {
                    OFFSET 1.69225 -0.51767 -0.607171
                  }
                }
              }
            }
          }
        }
      }
    }
  }
  JOINT rButtock
  {
    OFFSET -8.77824 4.35084 1.2192
    CHANNELS 3 Zrotation Xrotation Yrotation
    JOINT rThigh
    {
      OFFSET 0 -1.70687 -2.19456
      CHANNELS 3 Zrotation Xrotation Yrotation
      JOINT rShin
      {
        OFFSET 0 -36.8199 0.73152
        CHANNELS 3 Zrotation Xrotation Yrotation
        JOINT rFoot
        {
          OFFSET 0.73152 -45.1104 -5.12064
          CHANNELS 3 Zrotation Xrotation Yrotation
          End Site
          {
            OFFSET -1.1221 -3.69964 12.103
          }
        }
      }
    }
  }
  JOINT lButtock
  {
    OFFSET 8.77824 4.35084 1.2192
    CHANNELS 3 Zrotation Xrotation Yrotation
    JOINT lThigh
    {
      OFFSET 0 -1.70687 -2.19456
      CHANNELS 3 Zrotation Xrotation Yrotation
      JOINT lShin
      {
        OFFSET 0 -36.8199 0.73152
        CHANNELS 3 Zrotation Xrotation Yrotation
        JOINT lFoot
        {
          OFFSET -0.73152 -45.1104 -5.12064
          CHANNELS 3 Zrotation Xrotation Yrotation
          End Site
          {
            OFFSET 1.1221 -3.69964 12.103
          }
        }
      }
    }
  }
}
MOTION
Frames:	7
Frame Time:	0.03333
-44.923 76.1053 2.4635000000000002 -53.998595 88.716854 -47.073284 -1.778517 7.305549 -0.0 5.273297 -6.320937 -6.256104 10.150831 21.136916 87.706382 -33.434007 4.647765 -75.040317 -0.002141 0.0 -0.000976 0.003549 -0.0 -0.001469 -155.416976 -2.951219 161.719258 129.162707 -4.313749 131.240544 -10.437365 -2.150176 106.868284 -20.131787 -66.661067 -23.301535 -174.088916 -11.753359 89.874869 -177.016267 -13.420901 94.326214 174.378678 -63.059394 113.269915 -60.48442 56.062343 48.590056 -82.839915 61.110632 74.53264 -163.293748 -5.430695 143.235734 -145.099619 -1.604442 -178.624791 -71.166082 -78.002878 -92.80716 12.98897 44.344261 10.760882 -76.579296 -54.54498 -75.483682 33.82816 -85.66638 55.245167 50.911267 -24.65679 107.488921 -10.721857 62.928872 123.806487 167.544941 9.471321 -140.113885 -81.971384 -50.092007 -32.722983 30.517318 3.932215 9.374247 -10.748685 -19.04758 4.724565 17.189991 34.093974 -14.112025 36.035834 51.723231 -29.832144 -3.332785 0.217824 -0.097465 -0.000123 -0.018523 0.005749 3.740839 59.273879 -16.321573 -12.255729 41.42454 -10.277944 25.082135 -41.101235 25.143116 -0.00199 0.000807 -0.00199 8.399521 -37.947558 5.3203 5.393554 72.424243 173.441554 31.750764 28.62329 158.077995 -0.0 -0.00096 -0.00049 -7.438988 -37.615996 -12.0747 -3.806731 64.05878 63.710958 -148.433024 6.482354 17.7523
-44.6457 75.9911 2.4539999999999997 -42.896968 88.227127 -35.940154 -0.927108 7.279089 -15.261285 6.041308 -4.887019 8.733464 -0.788016 33.16844 -166.499611 6.765014 45.173265 177.438912 0.002111 0.0 0.002435 0.002111 0.0 0.002435 3.191767 -25.838805 -5.075513 87.873214 34.132376 -68.857451 88.931277 35.938937 75.962853 -37.943436 23.830324 19.317479 -164.494065 -2.166659 89.56169 -70.771624 -0.668543 23.966374 -46.207955 39.65356 36.31779 -178.996421 -31.822851 109.644838 -166.117888 -24.03966 145.079062 -7.549931 26.104545 6.432139 -145.099465 -1.520472 -178.648874 12.044548 29.417533 -5.662242 -150.577662 31.033901 -146.363743 5.846665 10.555486 0.958086 -4.239817 -44.742847 8.646165 -69.225997 -41.329331 28.771997 0.852859 -28.152278 118.432853 170.624459 1.050458 -142.055445 5.434625 5.264553 -1.077815 179.07043 -75.870296 -99.721294 138.495008 4.896804 -114.864743 159.235739 -6.401082 -118.584506 82.840759 61.11041 -74.532251 -11.639319 -24.887153 1.36428 145.102604 -1.437016 178.675918 156.379793 15.315321 -178.979321 156.378116 53.734292 150.120037 134.170211 -20.355752 130.475783 0.00032 -0.000574 -0.000411 9.253651 -40.140612 -165.816685 -7.457812 -71.374396 61.549242 98.174349 69.152105 13.052748 -0.0 -0.001632 -0.000719 -7.818095 -37.612588 -4.913557 14.870865 67.85502 80.479586 -85.507945 48.982864 -21.356639
-44.3253 75.90289999999999 2.4128 -37.704093 87.176661 -30.618522 -0.433208 2.559558 -170.390352 -4.254356 2.356464 163.505794 10.469266 22.876178 97.425399 -34.287238 10.365667 -81.198696 -0.002492 0.0 -0.000555 -0.002964 0.0 -0.000839 2.529682 -18.881235 -3.793989 -71.212149 -33.80372 -107.68599 -70.213128 26.403676 -132.592861 -165.418398 -37.207275 162.169848 -178.720193 -16.254537 89.449061 50.265315 -71.541103 37.695883 -13.872623 18.81418 9.292153 151.723488 -54.272514 89.707783 -36.037183 51.722776 29.832571 -167.174346 -17.350724 144.13084 -75.405801 72.952864 93.420137 5.020013 29.77169 -0.506842 -81.325144 -51.184035 -79.740405 -22.61662 -39.783231 -24.693608 48.783552 -86.435255 70.446456 -104.759229 22.66154 66.193469 78.45851 -0.525228 -159.860872 -138.206815 -79.717527 -118.177589 -178.340397 -19.01908 -88.988941 176.118635 -12.56202 -98.264061 138.492814 4.896302 -114.86509 172.899509 -32.712081 -117.375854 0.056664 0.168144 -0.03094 172.073699 -31.344774 -144.104113 145.120348 0.309997 179.225931 148.056927 -43.296161 170.511851 162.376169 72.064226 150.890624 -43.448322 80.43473 7.946051 -2.2e-05 -0.0009 2.8e-05 10.02499 -38.29837 -44.930621 -53.408492 33.478238 76.136316 108.961216 -45.292273 23.829961 -0.000109 0.001922 0.00014 -8.492369 -37.939419 39.277018 64.46366 36.416761 24.6225 -85.661756 49.480697 -21.600109
-44.046800000000005 75.7751 2.314 -37.759676 86.194091 -30.593874 0.205704 7.253991 0.0 4.77196 -6.315433 -6.526044 -6.454491 31.56996 -134.593983 26.917953 37.411479 141.455125 -0.003877 -0.0 0.000635 0.001812 0.0 0.000124 -80.165994 68.371122 83.261022 39.503926 30.960071 52.212514 -52.332574 -65.089916 54.816463 -32.262774 -76.711473 -38.794583 -0.441559 0.435339 0.068784 -112.495815 0.1838 102.166838 -0.328252 0.530054 0.184086 -65.770214 48.39649 50.662911 -160.671725 -6.668107 143.245125 -42.494061 58.273385 36.600244 -74.841634 72.96093 92.828011 5.112176 28.347507 -0.716156 -150.032011 28.966135 -145.93608 -147.627165 10.976357 -141.572792 59.832794 -86.721349 81.633262 -110.175169 24.688464 68.897981 77.300801 6.557102 -154.690626 -88.296692 -83.249911 -70.20486 168.110302 -5.789321 -89.87046 114.633822 11.93607 -52.302141 162.918478 -37.92937 -122.629961 169.778465 -35.336687 -117.378183 161.153225 -8.160793 -143.464731 169.068378 -22.201799 -143.914718 72.13282 72.976109 -89.988868 106.12348 82.217125 -115.269308 148.071025 21.784553 144.327482 161.284786 52.711673 146.818088 0.000896 -8.4e-05 -0.001152 8.259851 -37.970066 13.276166 35.299983 61.176587 64.584809 -70.245714 -29.784149 -141.995808 -0.000366 -0.000211 0.000471 -6.465665 -38.472145 -17.497215 -42.230967 70.469641 -154.759427 -39.448643 6.227107 -135.865871
-43.668800000000005 75.6306 2.3897999999999997 -39.185914 85.689083 -32.067879 2.085917 7.573408 -15.448254 5.533187 -5.220016 8.705353 -5.184234 14.249833 -14.903822 16.562948 -22.621245 32.931755 -0.001016 -0.0 8.8e-05 -0.001016 -0.0 8.8e-05 0.070641 -0.427972 -0.093556 -60.941756 -44.702551 -116.246061 -31.695499 -12.752381 -155.028397 -155.653615 3.836007 146.28787 -7.352104 7.061839 1.57058 9.373087 -10.002888 -2.159005 -153.51294 -21.181494 121.761329 -78.987577 57.462202 61.711737 -39.289036 53.366038 32.878008 2.9995 1.207338 0.240708 -145.121299 0.18557 -179.186222 -151.116762 -31.746308 -173.87473 12.986745 44.344491 10.762957 0.890187 -2.165729 -1.011779 -0.118206 -0.713955 0.158704 87.704884 -19.765391 -152.614122 -40.731769 73.18351 153.732744 165.200544 15.724792 -138.341972 155.112205 6.918048 -87.739366 80.627353 0.454539 -33.507105 -5.362942 -9.171881 2.722961 -3.284838 12.807447 -2.179175 -0.543447 -1.589615 0.294284 159.446895 6.515509 -141.793734 71.922726 72.975717 -89.770902 156.170932 -46.614225 175.960556 46.801371 -48.624038 45.560571 -3.360526 -0.029193 0.586301 -179.956858 75.749624 -0.035497 -172.03615 37.610558 -4.75428 -1.696724 71.471546 -133.153679 53.423473 -41.148633 133.368256 179.705474 75.747718 0.226999 174.479552 34.114642 5.651081 -17.609527 71.73704 -71.237153 -0.137333 63.781972 103.604154
-43.0707 75.3798 2.6186000000000003 -45.891939 85.349624 -39.166698 1.395892 4.631272 127.099031 -6.358222 -3.343507 -134.330479 10.42998 23.371363 100.63171 -34.163392 12.527039 -82.902286 0.000485 -0.0 -0.001388 -0.000147 0.0 -0.001584 -33.828873 -85.666271 -55.246258 -53.6744 -14.909296 -36.693088 -179.552592 12.416025 -74.326026 -18.374443 -50.507975 -13.987853 1.589865 -1.575969 -0.223555 -146.093969 -55.680882 121.785441 -46.207893 39.65459 36.316537 0.916875 8.641229 -0.880927 -111.803792 56.305483 102.278096 -42.185261 58.40221 36.455906 -71.925322 72.972677 89.772625 -152.069763 62.474045 162.75568 9.030092 28.890962 7.891656 -24.811396 -41.206559 -25.010977 143.299086 38.837503 -147.737532 -108.413855 -7.966103 -159.446619 -132.504581 -66.84812 -12.80225 162.832696 21.101034 -136.502641 -2.012007 -1.99687 0.274573 6.487125 7.106104 -4.210851 -10.283192 -18.182168 4.586448 51.928429 47.758138 -40.899354 -68.982168 -80.154655 -40.577563 -2.683521 0.996776 -0.29691 -0.006147 1.771083 -0.55843 156.624162 -25.086453 -174.792562 -7.928106 24.81174 -7.001725 -14.815618 44.067794 -8.575303 -0.006469 -0.000157 -0.006469 8.435411 -38.802326 137.38696 54.810441 -48.140773 -24.339267 100.014588 82.982615 161.532553 179.962003 75.74996 0.028389 176.323515 27.828087 1.653447 -16.439981 75.297991 -15.577584 -177.023467 -46.716487 -64.01141
-41.9125 75.0684 2.5198 -54.192093 84.668774 -48.042416 5.865142 9.604076 0.0 4.530224 -6.971792 -6.490798 -0.841176 33.027519 -166.338271 7.301937 45.251436 178.557741 -0.001413 -0.0 0.003005 0.005026 0.0 0.00267 -78.728492 68.389997 81.807813 59.604354 14.185332 43.271491 -10.609407 -42.475363 96.914623 -21.675184 -66.219603 -23.729809 -178.928046 -16.453473 89.421841 -40.570663 -21.144586 2.131632 -139.797378 2.902354 115.658521 -159.047434 -6.420468 118.685845 -145.287889 29.524581 132.692985 3.210395 0.41452 0.369044 -145.099574 -1.522688 -178.651181 11.721841 58.790192 -1.660287 -16.202434 -29.124374 -15.47131 46.123681 83.344017 -8.193848 -0.162634 -0.990002 0.219309 -143.010953 -58.679718 -49.467237 -87.878889 -11.794546 97.825429 90.284519 62.097493 -68.317451 168.111288 -5.788804 -89.871015 -176.881778 -19.187421 -93.310485 43.648683 38.80394 -34.059339 -1.414708 8.049191 0.874378 39.288991 53.3661 -32.877879 7.189317 26.201317 -6.15017 73.163068 -72.143344 90.197728 -14.719629 -0.031916 4.594767 162.37216 72.063996 150.895039 -53.49988 82.764276 17.100421 -179.997411 75.74967 -0.001771 -168.81748 38.868531 49.959158 69.712165 22.427371 66.993279 -82.651376 9.537294 -154.414264 -0.001116 -0.000886 0.001435 -2.366088 -56.343463 -1.995868 71.102722 85.273751 -18.810062 -8.950961 1.878777 -31.679296
